<?xml version="1.0" encoding="iso-8859-1"?>
<!-- Generator: Adobe Illustrator 16.0.0, SVG Export Plug-In . SVG Version: 6.00 Build 0)  -->
<!DOCTYPE svg PUBLIC "-//W3C//DTD SVG 1.1//EN" "http://www.w3.org/Graphics/SVG/1.1/DTD/svg11.dtd">
<svg version="1.1" id="Layer_1" xmlns="http://www.w3.org/2000/svg" xmlns:xlink="http://www.w3.org/1999/xlink" x="0px" y="0px"
	 width="100px" height="100px" viewBox="0 0 100 100" style="enable-background:new 0 0 100 100;" xml:space="preserve">
<rect x="2.785" y="2.393" style="fill-rule:evenodd;clip-rule:evenodd;fill:#193029;" width="94.814" height="92.444"/>
<linearGradient id="SVGID_1_" gradientUnits="userSpaceOnUse" x1="2.7852" y1="51.3809" x2="97.5991" y2="51.3809">
	<stop  offset="0" style="stop-color:#5CC1C0;stop-opacity:0.1"/>
	<stop  offset="0.483" style="stop-color:#5CC1C0"/>
	<stop  offset="1" style="stop-color:#5CC1C0;stop-opacity:0.1"/>
</linearGradient>
<path style="opacity:0.25;fill-rule:evenodd;clip-rule:evenodd;fill:url(#SVGID_1_);" d="M2.785,91.281h94.814v2.371H2.785V91.281z
	 M2.785,81.01h94.814v2.37H2.785V81.01z M2.785,60.466h94.814v2.371H2.785V60.466z M2.785,50.195h94.814v2.37H2.785V50.195z
	 M2.785,39.924h94.814v2.37H2.785V39.924z M2.785,29.652h94.814v2.371H2.785V29.652z M2.785,19.381h94.814v2.371H2.785V19.381z
	 M2.785,9.109h94.814v2.371H2.785V9.109z M2.785,70.738h94.814v2.37H2.785V70.738z"/>
<linearGradient id="SVGID_2_" gradientUnits="userSpaceOnUse" x1="2.7852" y1="46.2441" x2="97.5991" y2="46.2441">
	<stop  offset="0" style="stop-color:#5CC1C0;stop-opacity:0.1"/>
	<stop  offset="0.483" style="stop-color:#5CC1C0"/>
	<stop  offset="1" style="stop-color:#5CC1C0;stop-opacity:0.1"/>
</linearGradient>
<path style="opacity:0.4;fill-rule:evenodd;clip-rule:evenodd;fill:url(#SVGID_2_);" d="M2.785,75.874h94.814v2.37H2.785V75.874z
	 M2.785,86.146h94.814v2.369H2.785V86.146z M2.785,55.331h94.814v2.37H2.785V55.331z M2.785,65.603h94.814v2.371H2.785V65.603z
	 M2.785,45.06h94.814v2.371H2.785V45.06z M2.785,34.788h94.814v2.371H2.785V34.788z M2.785,24.517h94.814v2.371H2.785V24.517z
	 M2.785,14.245h94.814v2.37H2.785V14.245z M2.785,3.973h94.814v2.371H2.785V3.973z"/>
<path style="fill-rule:evenodd;clip-rule:evenodd;fill:#76C8C7;" d="M48.217,66.696c0,0.38-0.126,0.574-0.447,0.698
	c-1.651,0.701-4.341,0.953-7.079,0.953c-9.921,0-18.698-6.486-18.698-21.751c0-13.1,7.758-21.878,19.591-21.878
	c3.117,0,5.44,0.32,6.645,0.893c0.32,0.126,0.383,0.315,0.383,0.699v5.468c0,0.509-0.252,0.509-0.446,0.447
	c-1.524-0.763-3.848-1.209-6.519-1.209c-7.443,0-12.404,5.661-12.404,15.392c0,12.021,6.807,15.584,12.404,15.584
	c2.545,0,4.279-0.193,6.124-0.83c0.257-0.126,0.447-0.126,0.447,0.32V66.696z M78.435,52.004c0,9.92-5.089,16.344-13.037,16.344
	c-9.288,0-13.167-7.885-13.167-16.28c0-9.287,4.963-16.153,13.229-16.153C73.793,35.914,78.435,42.464,78.435,52.004z
	 M59.228,52.004c0,6.104,2.161,10.367,6.232,10.367c3.498,0,5.979-3.371,5.979-10.24c0-5.787-1.715-10.303-6.167-10.303
	C61.708,41.828,59.228,45.325,59.228,52.004z"/>
</svg>
