<svg xmlns="http://www.w3.org/2000/svg" xmlns:xlink="http://www.w3.org/1999/xlink" version="1.1" x="0px" y="0px" width="100px" height="100px" viewBox="0 0 100 100" enable-background="new 0 0 100 100" xml:space="preserve">
<g id="Captions">
</g>
<g id="Your_Icon">
	<g>
		<path fill="none" stroke="#000000" stroke-width="4" stroke-miterlimit="10" d="M74.28,8.142"/>
	</g>
	<g>
		<path fill="none" stroke="#000000" stroke-width="4" stroke-miterlimit="10" d="M66.819,6.532"/>
	</g>
	<g>
		<polygon points="65.376,71.39 69.061,68.689 85.582,96   "/>
		<path d="M75.018,59.998L39.531,9.536l-9.017,6.341l-3.712-5.279l7.381-5.19c0.904-0.635,1.121-1.883,0.485-2.786    c-0.635-0.903-1.882-1.12-2.786-0.485L13.85,14.817c-0.904,0.635-1.121,1.883-0.485,2.786c0.389,0.554,1.008,0.85,1.638,0.85    c0.397,0,0.799-0.118,1.148-0.364l7.38-5.19l3.712,5.279l-9.017,6.341l35.486,50.461l6.697-4.71l3.812,1.981l5.984-4.208    l-0.46-4.338L75.018,59.998z M44.606,55.076l5.711-4.015l-2.301-3.272l-5.711,4.016l-1.722-2.449l5.705-4.012l-2.301-3.272    l-5.705,4.012l-1.556-2.212l5.623-3.953l-2.301-3.272l-5.623,3.954l-1.556-2.212l5.694-4.004l-2.301-3.271l-5.694,4.004    l-1.556-2.212l5.689-4.001l-2.301-3.271l-5.689,4L23.8,25.489l14.761-10.38l30.885,43.918l-3.402,2.393l-0.557,0.059l0.033,0.31    L60.099,65.6l-0.221-0.115l-0.222,0.426l-4.973,3.497L44.606,55.076z"/>
		<polygon points="59.584,66.815 54.198,70.603 44.327,56.565 66.755,50.135 72.231,57.923 67.476,61.268 68.093,67.084     64.42,69.916   "/>
	</g>
</g>
</svg>