<?xml version="1.0" encoding="utf-8"?>
<!-- Generator: Adobe Illustrator 16.2.1, SVG Export Plug-In . SVG Version: 6.00 Build 0)  -->
<!DOCTYPE svg PUBLIC "-//W3C//DTD SVG 1.1//EN" "http://www.w3.org/Graphics/SVG/1.1/DTD/svg11.dtd">
<svg version="1.1" id="Layer_1" xmlns="http://www.w3.org/2000/svg" xmlns:xlink="http://www.w3.org/1999/xlink" x="0px" y="0px"
	 width="77.273px" height="100px" viewBox="0 0 77.273 100" enable-background="new 0 0 77.273 100" xml:space="preserve">
<g>
	<path d="M41.094,57.951l6.689,6.874l-29.91,33.067c-1.3,1.394-3.625,1.394-5.019,0l-3.621-3.715c-1.394-1.3-1.394-3.623,0-5.015
		L41.094,57.951z M69.151,65.01l-5.019,5.109c-1.021,1.023-2.601,1.023-3.715,0l-1.113-1.206c-0.837-0.743-1.211-2.138-0.744-2.788
		c0.834-0.557,0.558-2.229-1.023-3.717c-2.228-2.322-5.107-2.413-6.222-1.206c-0.463,0.372-1.951,1.95-1.951,1.95l-6.875-6.78
		l1.117-1.116c0,0,0.276-0.277,0.833-0.928c2.138-2.138-0.094-4.552-0.094-4.552c-6.035-5.945-14.488-5.852-14.488-5.852
		l-0.093-2.138c16.999-4.366,23.407,3.066,25.732,5.389c2.134,2.136,4.364,4.364,4.921,4.924c1.208,1.206,0,4.643,1.764,6.596
		c0.838,0.834,1.951,1.206,2.788,1.206c0.931-0.835,2.414-0.557,3.158,0.278l1.023,1.115C70.172,62.317,70.172,63.896,69.151,65.01z
		"/>
</g>
</svg>
